<?xml version="1.0" encoding="utf-8"?>
<!DOCTYPE svg PUBLIC "-//W3C//DTD SVG 1.0//EN" "http://www.w3.org/TR/2001/REC-SVG-20010904/DTD/svg10.dtd">
<svg version="1.0" xmlns="http://www.w3.org/2000/svg" width="495px" height="376px" viewBox="0 0 495 376" preserveAspectRatio="xMidYMid meet">
 <g fill="#ffffff">
  <path d="M233.6 326.8 c-5.9 -8.4 -11.5 -16.4 -12.5 -17.8 -1.1 -1.4 -11.3 -16 -22.8 -32.5 -25.8 -37 -58.6 -83.8 -79.2 -113 -8.5 -12.1 -16.8 -24 -18.5 -26.5 -1.7 -2.5 -5.5 -7.8 -8.4 -11.9 -2.9 -4.1 -4.9 -7.8 -4.5 -8.2 2 -2 65.7 -37.7 66.5 -37.3 0.4 0.3 0.8 4.5 0.8 9.4 0 10.5 2.8 7.8 -23 22.6 -9.7 5.7 -17.6 10.9 -17.8 11.8 -0.3 1.3 15.6 24.8 45.5 67.1 2.3 3.3 7 10.1 10.4 15 3.4 5 10.1 14.4 14.8 21 4.7 6.6 10.8 15.3 13.6 19.2 26.2 37.9 42.2 60.7 43.7 62.3 1 1.1 2.5 1.7 3.3 1.4 0.8 -0.4 8 -9.9 15.9 -21.3 7.8 -11.3 18.1 -26 22.8 -32.6 20 -28.4 45.8 -65.6 45.8 -66.1 0 -0.3 0.6 -1.2 1.4 -2 2 -1.9 39.6 -55.4 42 -59.7 1.1 -1.8 1.7 -4.1 1.4 -4.9 -0.4 -0.8 -9.1 -6.4 -19.5 -12.3 -10.3 -5.9 -19.4 -11.4 -20.1 -12.3 -1 -1.2 -1.2 -4 -0.8 -10.1 0.3 -4.6 0.7 -8.5 0.9 -8.7 0.2 -0.2 11.1 5.7 24.3 13.2 33.9 19.3 42.4 24.4 42.4 25.3 0 0.4 -1.5 2.8 -3.3 5.2 -1.8 2.4 -6.4 8.9 -10.2 14.4 -3.9 5.5 -8.8 12.6 -11 15.7 -2.2 3.1 -7.9 11.2 -12.6 18 -8.3 11.9 -84.9 121.1 -102 145.3 -4.6 6.6 -10.2 14.6 -12.3 17.8 -2.2 3.2 -4.5 6.2 -5.2 6.8 -0.9 0.7 -3.9 -2.9 -11.8 -14.3z"/>
  <path d="M240.4 267.3 c-2.1 -3.2 -7.6 -11.6 -12.2 -18.7 l-8.5 -12.8 0.8 -19.2 c0.4 -10.5 1 -23.1 1.4 -28.1 l0.6 -9 22.3 -0.3 c12.2 -0.1 22.2 -0.1 22.2 0 0.1 0.2 0.5 8.9 1 19.3 0.5 10.5 1.2 22.9 1.5 27.5 l0.7 8.5 -12.3 19.3 c-6.8 10.5 -12.7 19.2 -13.1 19.2 -0.4 0 -2.4 -2.6 -4.4 -5.7z"/>
  <path d="M226.5 156.5 c-2.2 -2.1 -2.5 -3.3 -2.5 -10.3 0 -9.1 1.3 -13.7 4.4 -15.4 1.1 -0.7 7.7 -1.4 14.6 -1.6 19.8 -0.7 22 1 22.3 16.6 0.2 8 0.1 8.5 -2.6 10.8 -2.7 2.3 -3.3 2.4 -18.3 2.4 -15.1 0 -15.6 -0.1 -17.9 -2.5z"/>
  <path d="M227.2 109.2 c-1 -0.7 -1.1 -5 -0.2 -21.8 0.5 -11.5 1.2 -22.6 1.5 -24.7 0.6 -4.3 -1.4 -5.9 -4.8 -3.7 -4.8 2.9 -29.6 17 -31.1 17.6 -1.4 0.5 -1.6 -0.6 -1.6 -9.3 l0 -10 14.8 -8.4 c8.1 -4.6 15.6 -8.8 16.7 -9.4 1.1 -0.6 6.5 -3.8 11.9 -7 l10 -5.8 3.5 1.9 c2 1.1 14.1 8.1 26.8 15.4 22.1 12.7 23.3 13.5 23.9 16.8 0.6 3.3 -0.1 15.1 -1.1 16 -0.2 0.2 -7.9 -3.9 -17 -9.3 -9.2 -5.3 -17.3 -9.4 -18.1 -9.1 -1.2 0.5 -1.4 3 -0.8 15.3 0.3 8.2 0.9 19.3 1.4 24.8 0.4 5.5 0.6 10.3 0.3 10.8 -0.6 1 -34.5 0.9 -36.1 -0.1z"/>
 </g>
 <g fill="#000000">
 </g>
</svg>